<?xml version="1.0" encoding="UTF-8" standalone="no"?>
<!-- Created with Inkscape (http://www.inkscape.org/) -->

<svg
   width="48.456062mm"
   height="45.17905mm"
   viewBox="0 0 48.456063 45.17905"
   version="1.1"
   id="svg1"
   inkscape:version="1.4.2 (ebf0e940, 2025-05-08)"
   sodipodi:docname="favicon.svg"
   inkscape:export-filename="WabansSmallLogo02.png"
   inkscape:export-xdpi="786.27936"
   inkscape:export-ydpi="786.27936"
   xmlns:inkscape="http://www.inkscape.org/namespaces/inkscape"
   xmlns:sodipodi="http://sodipodi.sourceforge.net/DTD/sodipodi-0.dtd"
   xmlns="http://www.w3.org/2000/svg"
   xmlns:svg="http://www.w3.org/2000/svg">
  <sodipodi:namedview
     id="namedview1"
     pagecolor="#ffffff"
     bordercolor="#000000"
     borderopacity="0.25"
     inkscape:showpageshadow="2"
     inkscape:pageopacity="0.0"
     inkscape:pagecheckerboard="0"
     inkscape:deskcolor="#d1d1d1"
     inkscape:document-units="mm"
     inkscape:zoom="2.6006187"
     inkscape:cx="96.515495"
     inkscape:cy="83.441683"
     inkscape:window-width="1472"
     inkscape:window-height="891"
     inkscape:window-x="0"
     inkscape:window-y="37"
     inkscape:window-maximized="0"
     inkscape:current-layer="layer1" />
  <defs
     id="defs1">
    <rect
       x="279.33939"
       y="291.56049"
       width="471.38522"
       height="237.43849"
       id="rect1" />
  </defs>
  <g
     inkscape:label="Layer 1"
     inkscape:groupmode="layer"
     id="layer1"
     transform="translate(-33.356209,-74.336517)">
    <path
       style="fill:#ffffff;stroke:#ffffff;stroke-width:1.6;stroke-dasharray:none;stroke-opacity:1;fill-opacity:1"
       id="path6"
       d="m 44.36531,83.282635 c 0,0 2.946502,1.235017 5.835302,0.462485 2.519755,-0.673841 4.634205,-1.709309 6.69721,-3.738982 0.33532,-0.329902 0.813125,-0.88007 0.815708,-1.13629 0.0024,-0.232187 -0.678863,-1.447221 -1.207862,-1.954248 -0.416193,-0.398912 -2.736769,0.970425 -4.503708,2.331432 -1.930668,1.487121 -5.820932,4.9343 -8.312389,7.975191 -1.823703,2.225876 -2.3219,2.980538 -3.862718,5.442944 -1.484432,2.372296 -2.764118,4.920606 -3.355061,7.792433 -0.389204,1.89145 -1.100676,7.58699 3.851566,9.6427 2.000057,0.67991 4.423655,0.23991 6.403564,-0.51108 0.875611,-0.3321 1.711431,-0.81029 2.567147,-1.21542 3.570703,-2.01192 6.866671,-4.66856 9.945152,-7.63055 1.621051,-1.559708 2.46041,-2.476211 3.974143,-4.122168 0.524219,-0.570009 1.030751,-1.153715 1.536177,-1.742862 0.400837,-0.467236 1.446059,-1.762777 1.904379,-2.378969 0.162303,-0.21821 0.365129,-0.62028 0.198851,-1.022045 -0.460681,-1.113108 -0.694202,-1.621669 -1.715147,-0.826802 -0.360723,0.280844 -0.66619,0.622457 -0.984272,0.955066 -2.415227,2.525548 -4.828843,5.381542 -6.800576,8.4002 -0.572996,0.87724 -1.085802,1.80664 -1.628704,2.70997 -1.197285,2.34678 -2.361605,4.80767 -2.726363,7.53409 -0.603525,4.50923 2.359664,6.53721 3.691085,6.70734 2.52489,0.32244 5.969589,-2.00888 8.23253,-3.83643 1.308157,-1.05648 3.476888,-3.11955 4.540937,-4.28775 2.661664,-2.92216 5.209132,-6.45502 7.226343,-10.031084 1.146859,-2.033132 2.249533,-4.375215 2.752518,-6.532353 -0.394687,-0.556442 -0.857241,-1.038832 -1.285861,-1.558249 -0.443452,2.437631 -1.181463,4.679721 -2.277791,6.822948 -2.466378,4.733698 -5.698387,8.890008 -9.382481,12.326348 -0.74307,0.6931 -1.52247,1.36105 -2.318418,1.97932 -1.385499,1.07623 -3.000308,2.14667 -4.564152,2.80083 -1.185343,0.49582 -2.48408,0.85637 -3.730867,0.62288 -2.796959,-0.52378 -2.49316,-3.63639 -0.645878,-8.59279 1.119822,-3.00457 2.688643,-5.80311 4.703148,-8.257149 2.05823,-2.507295 6.197324,-8.013332 5.807246,-7.354839 -0.370234,0.624997 -2.150673,2.962238 -3.261937,4.364409 -0.567473,0.716027 -1.205462,1.378424 -1.826874,2.04329 -2.988727,3.197699 -8.890416,8.894359 -14.622455,10.839169 -4.697469,1.59378 -7.872495,0.38498 -8.723288,-2.24728 -0.827494,-2.56018 -0.15673,-5.16522 1.735676,-9.569767 0.412355,-0.95975 0.912736,-1.869112 1.455147,-2.754654 1.50299,-2.453787 2.019951,-3.275119 3.814263,-5.485386 2.473601,-3.047025 5.252715,-5.767987 8.393826,-7.766347 1.613002,-1.026185 1.711328,-0.0074 -1.659991,1.32566 -0.816612,0.322906 -2.241241,0.712629 -3.148157,0.819347 -1.195384,0.140666 -2.721915,0.07577 -3.76214,-0.689189 0.06729,0.790957 0.225172,1.344631 0.225172,1.344631 z"
       sodipodi:nodetypes="cssscsssscscsssssssscccsssccsssssssssssssssssssc" />
  </g>
</svg>
